Coordinates
version=1
nRows=13
nColumns=63
inDegrees=yes

Units are S.I. units (second, meters, Newtons, ...)
If the header above contains a line with 'inDegrees', this indicates whether rotational values are in degrees (yes) or radians (no).

endheader
time	pelvis_tilt	pelvis_list	pelvis_rotation	pelvis_tx	pelvis_ty	pelvis_tz	hip_flexion_r	hip_adduction_r	hip_rotation_r	knee_angle_r	knee_angle_r_beta	ankle_angle_r	subtalar_angle_r	mtp_angle_r	hip_flexion_l	hip_adduction_l	hip_rotation_l	knee_angle_l	knee_angle_l_beta	ankle_angle_l	subtalar_angle_l	mtp_angle_l	L5_S1_Flex_Ext	L5_S1_Lat_Bending	L5_S1_axial_rotation	L4_L5_Flex_Ext	L4_L5_Lat_Bending	L4_L5_axial_rotation	L3_L4_Flex_Ext	L3_L4_Lat_Bending	L3_L4_axial_rotation	L2_L3_Flex_Ext	L2_L3_Lat_Bending	L2_L3_axial_rotation	L1_L2_Flex_Ext	L1_L2_Lat_Bending	L1_L2_axial_rotation	L1_T12_Flex_Ext	L1_T12_Lat_Bending	L1_T12_axial_rotation	Abs_r3	Abs_r2	Abs_r1	Abs_t1	Abs_t2	neck_flexion	neck_bending	neck_rotation	arm_flex_r	arm_add_r	arm_rot_r	elbow_flex_r	pro_sup_r	wrist_flex_r	wrist_dev_r	arm_flex_l	arm_add_l	arm_rot_l	elbow_flex_l	pro_sup_l	wrist_flex_l	wrist_dev_l
1.661017	2.067912	0.217756	86.033180	0.225005	1.062506	0.146729	-7.136041	-2.054856	0.775117	4.982905	0.086968	16.593103	7.179538	0.000000	-7.320558	2.263008	-8.917678	5.680702	0.099147	24.783489	2.626444	0.000000	-0.381637	2.194943	-1.467643	-0.708739	2.919274	-1.559370	-0.626992	5.336784	-1.559370	-0.436173	5.336784	-1.284187	-0.354388	4.475927	-1.192460	-0.218068	3.399966	-1.100732	-2.725997	24.829631	-8.162589	0.000000	0.000000	-5.790032	19.915537	-8.284430	31.101777	-5.031740	19.217105	149.929941	89.385076	-17.153818	-24.468198	73.021097	0.640377	53.166070	128.598062	85.366033	-20.233714	5.816994
1.677966	2.040085	-0.059188	85.761148	0.224699	1.062228	0.146092	-6.851667	-2.111322	1.265266	4.917434	0.085825	16.594633	6.894460	0.000000	-7.019951	2.313969	-9.498141	5.749987	0.100356	24.900914	2.998439	0.000000	-0.339922	2.222463	-1.450258	-0.631270	2.955876	-1.540899	-0.558458	5.403697	-1.540899	-0.388497	5.403697	-1.268975	-0.315652	4.532047	-1.178334	-0.194232	3.442596	-1.087693	-2.428032	25.140949	-8.065898	0.000000	0.000000	-5.786926	20.741368	-9.785772	30.793491	-5.197626	19.471008	149.928534	89.412896	-18.873690	-24.481889	72.976390	0.483793	53.543094	128.614959	85.346989	-20.326824	6.513961
1.694915	2.002307	-0.330868	85.439823	0.224549	1.061943	0.145643	-6.544918	-2.188721	1.600522	4.904460	0.085599	16.591886	6.838420	0.000000	-6.726223	2.370902	-10.218716	5.809598	0.101397	25.046706	3.525249	0.000000	-0.301780	2.246858	-1.422245	-0.560436	2.988321	-1.511136	-0.495795	5.463011	-1.511136	-0.344905	5.463011	-1.244465	-0.280233	4.581793	-1.155574	-0.172437	3.480383	-1.066684	-2.155585	25.416910	-7.910102	0.000000	0.000000	-5.799614	21.374106	-11.273807	30.541069	-5.320564	19.637220	149.927293	89.437938	-20.555959	-24.497613	72.946255	0.320410	54.003512	128.605751	85.393948	-20.676485	7.016275
1.711864	1.963116	-0.584527	85.136397	0.224448	1.061664	0.145404	-6.246071	-2.270210	1.748251	4.921510	0.085897	16.555161	6.967190	0.000000	-6.445677	2.426059	-10.856281	5.863584	0.102339	25.191150	3.990455	0.000000	-0.269275	2.268832	-1.392828	-0.500070	3.017546	-1.479879	-0.442391	5.516437	-1.479879	-0.307754	5.516437	-1.218724	-0.250048	4.626601	-1.131672	-0.153864	3.514420	-1.044621	-1.923402	25.665477	-7.746490	0.000000	0.000000	-5.819887	21.779753	-12.837489	30.352707	-5.413362	19.749159	149.926431	89.466590	-22.226425	-24.516054	72.934102	0.191147	54.423339	128.623237	85.592361	-20.838511	7.634819
1.728814	1.914461	-0.805550	84.841648	0.224438	1.061418	0.145340	-5.967814	-2.364372	1.742710	4.971259	0.086765	16.510345	7.259158	0.000000	-6.197843	2.489501	-11.413923	5.909369	0.103138	25.316545	4.391436	0.000000	-0.243549	2.287905	-1.358729	-0.452295	3.042914	-1.443650	-0.400127	5.562813	-1.443650	-0.278352	5.562813	-1.188888	-0.226160	4.665496	-1.103968	-0.139164	3.543965	-1.019047	-1.739648	25.881241	-7.556846	0.000000	0.000000	-5.924225	21.906355	-14.400356	30.195920	-5.466397	19.797259	149.925746	89.492921	-23.659447	-24.532924	72.947055	0.085637	54.817619	128.682024	85.893733	-20.802602	8.242972
1.745763	1.873563	-0.992677	84.562707	0.224466	1.061203	0.145476	-5.709002	-2.456865	1.531675	5.051177	0.088160	16.485463	7.796132	0.000000	-5.983118	2.540325	-11.956054	5.948013	0.103812	25.439659	4.835538	0.000000	-0.225982	2.306247	-1.318041	-0.419671	3.067309	-1.400419	-0.371266	5.607410	-1.400419	-0.258275	5.607410	-1.153286	-0.209847	4.702899	-1.070909	-0.129126	3.572377	-0.988531	-1.614167	26.088730	-7.330550	0.000000	0.000000	-6.028210	21.845449	-15.984389	30.064795	-5.477862	19.712921	149.925357	89.518927	-24.586004	-24.546219	72.994689	0.024314	55.175545	128.771681	86.280105	-20.561712	8.779938
1.762712	1.847130	-1.135828	84.298674	0.224507	1.061019	0.145769	-5.485961	-2.538809	1.217293	5.146534	0.089824	16.492410	8.469801	0.000000	-5.818607	2.584366	-12.315590	5.965004	0.104109	25.512886	5.071615	0.000000	-0.217761	2.325220	-1.275684	-0.404404	3.092543	-1.355415	-0.357760	5.653541	-1.355415	-0.248879	5.653541	-1.116224	-0.202213	4.741589	-1.036494	-0.124429	3.601766	-0.956763	-1.555447	26.303358	-7.094974	0.000000	0.000000	-6.140941	21.613483	-17.535639	30.002760	-5.464693	19.649264	149.925175	89.540483	-25.320836	-24.556396	73.078319	-0.032214	55.481233	128.932617	86.748893	-20.209464	9.378378
1.779661	1.829538	-1.250915	84.094321	0.224491	1.060832	0.146114	-5.303088	-2.607919	0.794858	5.227892	0.091244	16.552079	9.244989	0.000000	-5.685134	2.620878	-12.461037	5.969289	0.104184	25.538780	5.109338	0.000000	-0.211556	2.344199	-1.240988	-0.392881	3.117784	-1.318550	-0.347565	5.699685	-1.318550	-0.241787	5.699685	-1.085865	-0.196451	4.780290	-1.008303	-0.120883	3.631164	-0.930741	-1.511124	26.518045	-6.902004	0.000000	0.000000	-6.293839	21.274866	-19.027538	29.944437	-5.417169	19.543146	149.925188	89.553946	-25.679820	-24.564142	73.141058	-0.079446	55.660175	129.133610	87.296524	-19.540773	10.043436
1.796610	1.843270	-1.327104	83.908869	0.224434	1.060666	0.146501	-5.175649	-2.629653	0.679937	5.275301	0.092071	16.596915	9.621055	0.000000	-5.602307	2.633467	-12.455497	5.955472	0.103943	25.519346	4.963669	0.000000	-0.210728	2.366732	-1.208613	-0.391342	3.147754	-1.284151	-0.346204	5.754473	-1.284151	-0.240841	5.754473	-1.057536	-0.195682	4.826240	-0.981998	-0.120410	3.666068	-0.906460	-1.505206	26.772947	-6.721942	0.000000	0.000000	-6.423861	20.900213	-20.377135	29.961412	-5.369884	19.555224	149.925320	89.568976	-26.105942	-24.570936	73.174263	-0.130032	55.721569	129.329282	87.857102	-18.704264	10.599935
1.813559	1.879329	-1.372899	83.765442	0.224287	1.060506	0.146844	-5.101190	-2.622346	0.682013	5.289582	0.092321	16.670308	9.833228	0.000000	-5.564069	2.631184	-12.286074	5.922287	0.103363	25.456229	4.637606	0.000000	-0.211538	2.392136	-1.183517	-0.392846	3.181541	-1.257487	-0.347535	5.816239	-1.257487	-0.241766	5.816239	-1.035578	-0.196434	4.878043	-0.961608	-0.120873	3.705418	-0.887638	-1.510992	27.060319	-6.582367	0.000000	0.000000	-6.531539	20.544802	-21.537132	30.018747	-5.320374	19.628967	149.925220	89.580584	-26.447284	-24.574456	73.176097	-0.185474	55.714198	129.533473	88.401813	-17.924885	11.147920
1.830508	1.935863	-1.397383	83.639234	0.224090	1.060344	0.147139	-5.059671	-2.589579	0.823780	5.285515	0.092250	16.775273	9.885294	0.000000	-5.558188	2.615673	-11.998630	5.883465	0.102686	25.361071	4.151662	0.000000	-0.213596	2.419260	-1.157735	-0.396669	3.217616	-1.230094	-0.350917	5.882190	-1.230094	-0.244119	5.882190	-1.013018	-0.198345	4.933356	-0.940660	-0.122049	3.747434	-0.868302	-1.525694	27.367157	-6.438977	0.000000	0.000000	-6.561647	20.294898	-22.575081	30.088928	-5.280882	19.706471	149.924992	89.589846	-26.705428	-24.575543	73.159145	-0.215090	55.668486	129.709658	88.871660	-17.211463	11.619963
1.847458	2.020957	-1.409993	83.549239	0.223816	1.060175	0.147340	-5.050966	-2.521977	1.053784	5.253839	0.091697	16.896118	9.811866	0.000000	-5.580556	2.579482	-11.529338	5.832184	0.101791	25.215753	3.453169	0.000000	-0.215107	2.449453	-1.136071	-0.399475	3.257772	-1.207075	-0.353399	5.955599	-1.207075	-0.245846	5.955599	-0.994062	-0.199748	4.994924	-0.923057	-0.122912	3.794202	-0.852053	-1.536487	27.708698	-6.318483	0.000000	0.000000	-6.508644	20.155866	-23.461577	30.205756	-5.286089	19.969458	149.924622	89.600934	-27.432567	-24.576832	73.131797	-0.205180	55.623948	129.891620	89.212599	-16.704938	12.151252
1.864407	2.119600	-1.423440	83.477333	0.223515	1.059975	0.147433	-5.058898	-2.432020	1.429224	5.198335	0.090728	17.009326	9.544583	0.000000	-5.613475	2.532160	-11.006679	5.782477	0.100923	25.055532	2.702527	0.000000	-0.214499	2.479871	-1.108827	-0.398347	3.298228	-1.178129	-0.352401	6.029558	-1.178129	-0.245151	6.029558	-0.970224	-0.199184	5.056953	-0.900922	-0.122565	3.841320	-0.831620	-1.532147	28.052795	-6.166964	0.000000	0.000000	-6.356420	20.183750	-24.265998	30.251540	-5.301181	20.099821	149.924141	89.608609	-27.815876	-24.575172	73.119644	-0.117149	55.610475	130.028634	89.429855	-16.269446	12.549203
